<?xml version="1.0" encoding="UTF-8" standalone="no"?>
<svg
   _ngcontent-ng-c3786032660=""
   viewBox="0 0 779.8397 650.99998"
   width="77.983971mm"
   height="65.099998mm"
   version="1.1"
   id="svg196"
   xmlns="http://www.w3.org/2000/svg"
   xmlns:svg="http://www.w3.org/2000/svg">
  <defs
     id="defs200" />
  <circle
     _ngcontent-ng-c3786032660=""
     stroke="#808080"
     fill="none"
     cx="389.6452"
     cy="325.5"
     r="325"
     id="circle182"
     style="fill:#ffffff" />
  <path
     _ngcontent-ng-c3786032660=""
     d="m 463.99336,261.434 c 34.92965,-2.8122 73.71406,35.97055 77.72862,70.7825 10.16719,88.16373 -126.71151,177.53928 -150.88316,219.36316 0,0 -43.54234,-75.2447 -43.40348,-143.46465 0.14053,-69.02843 54.3085,-141.66928 116.55802,-146.68101 z"
     class="lHeart"
     fill="#a6d854"
     id="path10054"
     style="fill:none;stroke:#fc8d62;stroke-width:2.64583;stroke-linecap:round;stroke-linejoin:round;stroke-dasharray:2.64583, 7.9375;stroke-dashoffset:0;stroke-opacity:1;paint-order:stroke fill markers" />
  <circle
     _ngcontent-ng-c3786032660=""
     stroke="#ff0000"
     opacity="0.4"
     fill="none"
     cx="389.6452"
     cy="325.5"
     r="225"
     id="circle184" />
  <!--bindings={  "ng-reflect-ng-if": "true"}-->
  <path
     _ngcontent-ng-c3786032660=""
     d="m 336.94247,341.47031 c -25.16438,-2.02599 -53.10583,25.91427 -55.99805,50.99385 -7.32474,63.51581 91.2868,127.90465 108.70078,158.03584 0,0 31.36923,-54.20855 31.26918,-103.35626 -0.10123,-49.73017 -39.12548,-102.06283 -83.97191,-105.67343 z"
     class="lHeart"
     fill="#a6d854"
     id="path186"
     style="opacity:0.6;fill:#66c2a5;fill-opacity:1;stroke-width:2.85" />
  <path
     _ngcontent-ng-c3786032660=""
     href="#shape"
     d="m 448.50414,317.05358 c 28.10382,-2.26265 59.30911,28.9413 62.53917,56.95043 8.18034,70.93508 -101.95,142.84518 -121.39811,176.49599 0,0 -35.03346,-60.54065 -34.92172,-115.4293 0.11305,-55.53914 43.69571,-113.98477 93.78066,-118.01712 z"
     class="rHeart"
     fill="#8da0cb"
     id="path188"
     style="font-variation-settings:normal;opacity:0.6;mix-blend-mode:multiply;vector-effect:none;fill:#fc8d62;fill-opacity:1;stroke:none;stroke-width:2.64583;stroke-linecap:round;stroke-linejoin:round;stroke-miterlimit:4;stroke-dasharray:2.64583, 7.9375;stroke-dashoffset:0;stroke-opacity:1;-inkscape-stroke:none;paint-order:stroke fill markers;stop-color:#000000;stop-opacity:1" />
  <!-- <text
     _ngcontent-ng-c3786032660=""
     text-anchor="middle"
     ng-reflect-ng-style="[object Object]"
     font-size="45px"
     y="199.5"
     x="389.6452"
     id="text190">name</text>
  <text
     _ngcontent-ng-c3786032660=""
     text-anchor="middle"
     ng-reflect-ng-style="[object Object]"
     font-size="45px"
     y="253.5"
     x="389.6452"
     id="text192">surname</text> -->
  <!-- <text
     _ngcontent-ng-c3786032660=""
     text-anchor="middle"
     opacity="0.7"
     ng-reflect-ng-style="[object Object]"
     font-size="36px"
     y="298.5"
     x="389.6452"
     id="text194">note</text> -->
  <text
     _ngcontent-ng-c3786032660=""
     text-anchor="middle"
     ng-reflect-ng-style="[object Object]"
     font-size="45px"
     y="362.9971"
     x="-50.270828"
     id="text192-3"
     style="text-align:end;text-anchor:end">known_from1</text>
  <text
     _ngcontent-ng-c3786032660=""
     text-anchor="middle"
     ng-reflect-ng-style="[object Object]"
     font-size="45px"
     y="541.20624"
     x="-50.270828"
     id="text192-3-5"
     dx="0 0 0 0 0 0 0 0"
     style="text-align:end;text-anchor:end">known_years1</text>
  <text
     _ngcontent-ng-c3786032660=""
     text-anchor="middle"
     ng-reflect-ng-style="[object Object]"
     font-size="45px"
     y="541.20624"
     x="830.1106"
     id="text192-3-5-2"
     dx="0 0 0 0 0 0 0 0"
     style="text-align:start;text-anchor:start">known_years2</text>
  <text
     _ngcontent-ng-c3786032660=""
     text-anchor="middle"
     ng-reflect-ng-style="[object Object]"
     font-size="45px"
     y="357.70544"
     x="830.1106"
     id="text192-3-1"><tspan
       style="text-align:start;text-anchor:start"
       id="tspan619">known_from2</tspan></text>
  <!--ng-container-->
  <!--bindings={  "ng-reflect-ng-if": "[object Object]"}-->
  <!--bindings={  "ng-reflect-ng-template-outlet": "[object Object]"}-->
  <path
     id="path1238"
     style="color:#000000;font-variation-settings:normal;opacity:1;fill:none;fill-opacity:1;stroke:#66c2a5;stroke-width:5.29167;stroke-linecap:round;stroke-linejoin:round;stroke-miterlimit:4;stroke-dasharray:none;stroke-dashoffset:0;stroke-opacity:1;stop-color:#000000;stop-opacity:1"
     d="M 2.6458352,362.9971 323.20275,404.14172 c 0.0718,4.21984 3.39664,8.92969 7.66103,8.92969 4.30838,0 7.88066,-3.47134 7.88066,-7.75147 -10e-6,-4.28011 -3.57228,-7.75146 -7.88066,-7.75146 -3.43236,0 -6.59809,3.51347 -7.66103,6.57324 z" />
  <path
     id="path1240"
     style="color:#000000;font-variation-settings:normal;opacity:1;fill:none;fill-opacity:1;stroke:#fc8d62;stroke-width:5.29167;stroke-linecap:round;stroke-linejoin:round;stroke-miterlimit:4;stroke-dasharray:none;stroke-dashoffset:0;stroke-opacity:1;stop-color:#000000;stop-opacity:1"
     d="m 444.2212,404.82902 c -1.09331,-3.00567 -4.25466,-6.46473 -7.64811,-6.46473 -4.30836,0 -7.87549,3.47134 -7.87549,7.75147 10e-6,4.28011 3.56713,7.75146 7.87549,7.75146 4.3031,0 7.63939,-4.76528 7.64811,-9.0382 l 332.97271,-47.12358 z" />
  <path
     _ngcontent-ng-c3786032660=""
     href="#shape"
     d="m 331.39058,317.05358 c -28.10383,-2.26265 -59.30912,28.9413 -62.53917,56.95043 -8.18035,70.93508 101.95,142.84518 121.3981,176.49599 0,0 35.03346,-60.54065 34.92173,-115.42929 -0.11306,-55.53915 -43.69572,-113.98477 -93.78066,-118.01713 z"
     class="rHeart"
     fill="#8da0cb"
     id="path10056"
     style="font-variation-settings:normal;opacity:1;vector-effect:none;fill:none;fill-opacity:1;stroke:#66c2a5;stroke-width:2.64583;stroke-linecap:round;stroke-linejoin:round;stroke-miterlimit:4;stroke-dasharray:2.64583, 7.9375;stroke-dashoffset:0;stroke-opacity:1;-inkscape-stroke:none;paint-order:stroke fill markers;stop-color:#000000;stop-opacity:1" />
  <path
     style="font-variation-settings:normal;opacity:1;fill:none;fill-opacity:1;stroke:#fc8d62;stroke-width:5.29167;stroke-linecap:round;stroke-linejoin:round;stroke-miterlimit:4;stroke-dasharray:none;stroke-dashoffset:0;stroke-opacity:1;stop-color:#000000;stop-opacity:1"
     d="M 777.19391,541.20624 514.3964,416.24852"
     id="path14164" />
  <path
     style="font-variation-settings:normal;opacity:1;fill:none;fill-opacity:1;stroke:#66c2a5;stroke-width:5.29167;stroke-linecap:round;stroke-linejoin:round;stroke-miterlimit:4;stroke-dasharray:none;stroke-dashoffset:0;stroke-opacity:1;stop-color:#000000;stop-opacity:1"
     d="M 2.6458349,541.20624 284.78251,434.5119"
     id="path14166" />
</svg>
